{"title":"2016.Oscar.Nominated.Short.Films.Live.Action.and.Select.Animatio","uid":13705310,"size":4205777390,"categoryP":"video","categoryS":"hd___movies","magnet":"?xt=urn:btih:c4f51bf68919f08e1b1553fcbca65b1f1b6d5ab9&amp;dn=2016.Oscar.Nominated.Short.Films.Live.Action.and.Select.Animatio&amp;tr=udp%3A%2F%2Ftracker.leechers-paradise.org%3A6969&amp;tr=udp%3A%2F%2Fzer0day.ch%3A1337&amp;tr=udp%3A%2F%2Fopen.demonii.com%3A1337&amp;tr=udp%3A%2F%2Ftracker.coppersurfer.tk%3A6969&amp;tr=udp%3A%2F%2Fexodus.desync.com%3A6969","seeders":0,"leechers":2,"uploader":null,"files":5,"time":1456821439,"description":"2016.Oscar.Nominated.Short.Films.Live.Action.and.Select.Animation.2016.720p.WEB-DL.XviD.MP3\r\n \nhttp://www.circlecinema.com/wp-content/uploads/2016/01/Oscar-Nominated-Shorts-2016-e1453836647403.jpg\r\n\r\n\r\nVideo\r\nID : 0\r\nFormat : MPEG-4 Visual\r\nFormat profile :   \r\nFormat settings, BVOP : No\r\nFormat settings, QPel : No\r\nFormat settings, GMC : No warppoints\r\nFormat settings, Matrix : Default (H.263)\r\nCodec ID : XVID\r\nCodec ID/Hint : XviD\r\nDuration : 2h 21mn\r\nBit rate : 3 766 Kbps\r\nWidth : 1 280 pixels\r\nHeight : 720 pixels\r\nDisplay aspect ratio : 16:9\r\nFrame rate : 23.976 fps\r\nColor space : YUV\r\nChroma subsampling : 4:2:0\r\nBit depth : 8 bits\r\nScan type : Progressive\r\nCompression mode : Lossy\r\nBits/(Pixel*Frame) : 0.170\r\nStream size : 3.71 GiB (95%)\r\nWriting library : Lavc56.13.100\r\n\r\nAudio\r\nID : 1\r\nFormat : MPEG Audio\r\nFormat version : Version 1\r\nFormat profile : Layer 3\r\nMode : Joint stereo\r\nMode extension : MS Stereo\r\nCodec ID : 55\r\nCodec ID/Hint : MP3\r\nDuration : 2h 21mn\r\nBit rate mode : Constant\r\nBit rate : 192 Kbps\r\nChannel(s) : 2 channels\r\nSampling rate : 48.0 KHz\r\nCompression mode : Lossy\r\nStream size : 194 MiB (5%)\r\nAlignment : Aligned on interleaves\r\nInterleave, duration : 24 ms (0.58 video frame)\r\nInterleave, preload duration : 504 ms\r\nWriting library : LAME3.99.5\r\n\r\n \nhttps://itunes.apple.com/us/movie/2016-oscar-nominated-short/id1080995520","torrent":{"xt":"urn:btih:c4f51bf68919f08e1b1553fcbca65b1f1b6d5ab9","amp;dn":"2016.Oscar.Nominated.Short.Films.Live.Action.and.Select.Animatio","amp;tr":["udp%3A%2F%2Ftracker.leechers-paradise.org%3A6969","udp%3A%2F%2Fzer0day.ch%3A1337","udp%3A%2F%2Fopen.demonii.com%3A1337","udp%3A%2F%2Ftracker.coppersurfer.tk%3A6969","udp%3A%2F%2Fexodus.desync.com%3A6969"],"infoHash":"c4f51bf68919f08e1b1553fcbca65b1f1b6d5ab9","infoHashBuffer":{"type":"Buffer","data":[196,245,27,246,137,25,240,142,27,21,83,252,188,166,91,31,27,109,90,185]},"announce":[],"urlList":[]}}